<svg id="vector" xmlns="http://www.w3.org/2000/svg" width="636" height="626" viewBox="0 0 636 626"><path fill="#000000" d="M280.6 384.9L249.7 353.1C241.2 345.5 238.2 333.1 241.1 321.8C244.1 312.9 248.1 301.3 253.8 288H148C139.38 288 131.414 283.4 127.146 275.9C122.877 268.4 122.958 259.2 127.357 251.8L179.83 163.3C192.79 141.4 216.33 127.1 241.8 127.1H324C326.4 124 328.8 120.3 331.2 116.7C413.1 -4.06956 535.1 -8.14156 607.9 5.27543C619.6 7.41443 628.6 16.4304 630.7 28.0604C644.1 100.9 640.1 222.9 519.3 304.8C515.8 307.2 511.1 309.6 508 311.1V394.2C508 419.7 494.6 443.2 472.7 456.2L384.2 508.6C376.8 513 367.6 513.1 360.1 508.9C352.6 504.6 348 496.6 348 488V380.8C333.9 385.6 321.6 389.7 312.3 392.7C301.1 396.3 288.9 393.2 280.6 384.9ZM508 167.1C530.1 167.1 548 150.1 548 127.1C548 105.9 530.1 87.1004 508 87.1004C485.9 87.1004 468 105.9 468 127.1C468 150.1 485.9 167.1 508 167.1Z" id="path_0"/><path fill="#000000" d="M56.9962 505.383C70.177 505.271 83.1033 504.214 95.3696 502.428C91.0469 523.986 88.5866 547.849 88.3883 572.165C150.864 571.719 213.927 552.692 238.649 527.971C282.601 484.018 286.568 416.791 247.487 377.711C208.407 338.63 141.18 342.597 97.2272 386.55C78.859 404.918 57.3291 459.278 56.9962 505.383ZM180.735 393.892C192.799 395.528 204.303 400.818 213.426 409.941C236.196 432.71 238.268 467.742 211.52 494.49C198.183 507.828 178.788 511.918 143.397 516.689C143.95 511.717 155.48 442.179 155.48 442.179L113.881 446.762C114.909 443.129 116.066 439.611 117.204 436.343C126.567 409.675 153.261 390.241 180.735 393.892Z" id="path_1"/></svg>