<!--?xml version="1.0" standalone="no"?-->
<svg id="sw-js-blob-svg" viewBox="0 0 100 100" xmlns="http://www.w3.org/2000/svg" version="1.1">
    <defs> 
        <linearGradient id="sw-gradient" x1="0" x2="1" y1="1" y2="0">
            <stop id="stop1" stop-color="rgba(0, 154.932, 255, 1)" offset="0%"></stop>
            <stop id="stop2" stop-color="rgba(0, 52.704, 255, 1)" offset="100%"></stop>
        </linearGradient>
    </defs>
<path fill="url(#sw-gradient)" d="M15.5,-27.5C20.1,-24.1,24.1,-20.1,29.5,-15.5C34.9,-10.8,41.7,-5.4,39.6,-1.2C37.4,2.9,26.2,5.8,21.9,12.3C17.5,18.8,20,28.8,17.5,34.4C15,39.9,7.5,41,2.2,37.2C-3.1,33.4,-6.2,24.8,-10.6,20.3C-15,15.8,-20.8,15.6,-26.3,12.9C-31.8,10.2,-37.1,5.1,-36.9,0.1C-36.8,-4.9,-31.2,-9.8,-26.7,-14.4C-22.3,-18.9,-19,-23.1,-14.7,-26.6C-10.5,-30.2,-5.2,-33.1,0.1,-33.3C5.4,-33.4,10.8,-30.8,15.5,-27.5Z" width="100%" height="100%" transform="translate(50 50)" stroke-width="0" style="transition: all 0.3s ease 0s;" stroke="url(#sw-gradient)"></path>
</svg>