<?xml version="1.0" encoding="utf-8"?>
<svg viewBox="-102.542 -45.594 578.98 572.164" xmlns="http://www.w3.org/2000/svg">
  <path d="M 121.062 339.305 L 90.162 307.505 C 81.662 299.905 78.662 287.505 81.562 276.205 C 84.562 267.305 88.562 255.705 94.262 242.405 L -11.538 242.405 C -20.158 242.405 -28.124 237.805 -32.392 230.305 C -36.661 222.805 -36.58 213.605 -32.181 206.205 L 20.292 117.705 C 33.252 95.805 56.792 81.505 82.262 81.505 L 164.462 81.505 C 166.862 78.405 169.262 74.705 171.662 71.105 C 253.562 -49.664 375.562 -53.736 448.362 -40.319 C 460.062 -38.18 469.062 -29.164 471.162 -17.534 C 484.562 55.305 480.562 177.305 359.762 259.205 C 356.262 261.605 351.562 264.005 348.462 265.505 L 348.462 348.605 C 348.462 374.105 335.062 397.605 313.162 410.605 L 224.662 463.005 C 217.262 467.405 208.062 467.505 200.562 463.305 C 193.062 459.005 188.462 451.005 188.462 442.405 L 188.462 335.205 C 174.362 340.005 162.062 344.105 152.762 347.105 C 141.562 350.705 129.362 347.605 121.062 339.305 Z M 348.462 121.505 C 370.562 121.505 388.462 104.505 388.462 81.505 C 388.462 60.305 370.562 41.506 348.462 41.506 C 326.362 41.506 308.462 60.305 308.462 81.505 C 308.462 104.505 326.362 121.505 348.462 121.505 Z" id="path_0" style="fill: rgb(255, 255, 255);"/>
  <path d="M -102.542 459.788 C -89.361 459.676 -76.435 458.619 -64.168 456.833 C -68.491 478.391 -70.951 502.254 -71.15 526.57 C -8.674 526.124 54.389 507.097 79.111 482.376 C 123.063 438.423 127.03 371.196 87.949 332.116 C 48.869 293.035 -18.358 297.002 -62.311 340.955 C -80.679 359.323 -102.209 413.683 -102.542 459.788 Z M 21.197 348.297 C 33.261 349.933 44.765 355.223 53.888 364.346 C 76.658 387.115 78.73 422.147 51.982 448.895 C 38.645 462.233 19.25 466.323 -16.141 471.094 C -15.588 466.122 -4.058 396.584 -4.058 396.584 L -45.657 401.167 C -44.629 397.534 -43.472 394.016 -42.334 390.748 C -32.971 364.08 -6.277 344.646 21.197 348.297 Z" id="path_1" style="fill: rgb(255, 255, 255);"/>
</svg>